{
	"patcher" : 	{
		"fileversion" : 1,
		"appversion" : 		{
			"major" : 8,
			"minor" : 6,
			"revision" : 2,
			"architecture" : "x64",
			"modernui" : 1
		}
,
		"classnamespace" : "box",
		"rect" : [ 34.0, 87.0, 1660.0, 959.0 ],
		"bglocked" : 0,
		"openinpresentation" : 0,
		"default_fontsize" : 12.0,
		"default_fontface" : 0,
		"default_fontname" : "Arial",
		"gridonopen" : 1,
		"gridsize" : [ 15.0, 15.0 ],
		"gridsnaponopen" : 1,
		"objectsnaponopen" : 1,
		"statusbarvisible" : 2,
		"toolbarvisible" : 1,
		"lefttoolbarpinned" : 0,
		"toptoolbarpinned" : 0,
		"righttoolbarpinned" : 0,
		"bottomtoolbarpinned" : 0,
		"toolbars_unpinned_last_save" : 0,
		"tallnewobj" : 0,
		"boxanimatetime" : 200,
		"enablehscroll" : 1,
		"enablevscroll" : 1,
		"devicewidth" : 0.0,
		"description" : "",
		"digest" : "",
		"tags" : "",
		"style" : "",
		"subpatcher_template" : "",
		"assistshowspatchername" : 0,
		"boxes" : [ 			{
				"box" : 				{
					"id" : "obj-114",
					"maxclass" : "preset",
					"numinlets" : 1,
					"numoutlets" : 5,
					"outlettype" : [ "preset", "int", "preset", "int", "" ],
					"patching_rect" : [ 1091.0, 107.0, 100.0, 40.0 ],
					"preset_data" : [ 						{
							"number" : 1,
							"data" : [ 5, "obj-14", "playlist~", "preset_count", 1, 7, "obj-14", "playlist~", "preset_clipstate", 1, "filekind", "audiofile", 7, "obj-14", "playlist~", "preset_clipstate", 1, "absolutepath", "Macintosh HD:/Users/samueltarakajian/cute/sound-studio-samples/drums/ProducerSpot-House-Drums/Claps/House Clap 16.wav", 7, "obj-14", "playlist~", "preset_clipstate", 1, "filename", "House Clap 16.wav", 7, "obj-14", "playlist~", "preset_clipstate", 1, "loop", 0, 8, "obj-14", "playlist~", "preset_clipstate", 1, "selection", -1.0, -1.0, 7, "obj-14", "playlist~", "preset_clipstate", 1, "id", "u564005336", 4, "obj-14", "playlist~", "preset_execute", 5, "obj-44", "number", "int", 8, 5, "obj-47", "number", "int", 5, 5, "obj-49", "number", "int", 1, 5, "obj-75", "playlist~", "preset_count", 1, 7, "obj-75", "playlist~", "preset_clipstate", 1, "filekind", "audiofile", 7, "obj-75", "playlist~", "preset_clipstate", 1, "absolutepath", "/Users/samueltarakajian/cute/sound-studio-samples/drums/ProducerSpot-House-Drums/Kicks/House Kick 41.wav", 7, "obj-75", "playlist~", "preset_clipstate", 1, "filename", "House Kick 41.wav", 7, "obj-75", "playlist~", "preset_clipstate", 1, "loop", 0, 8, "obj-75", "playlist~", "preset_clipstate", 1, "selection", -1.0, -1.0, 7, "obj-75", "playlist~", "preset_clipstate", 1, "id", "u984009869", 4, "obj-75", "playlist~", "preset_execute", 5, "obj-69", "number", "int", 8, 5, "obj-68", "number", "int", 2, 5, "obj-67", "number", "int", 0, 5, "obj-91", "playlist~", "preset_count", 1, 7, "obj-91", "playlist~", "preset_clipstate", 1, "filekind", "audiofile", 7, "obj-91", "playlist~", "preset_clipstate", 1, "absolutepath", "/Users/samueltarakajian/cute/sound-studio-samples/drums/ProducerSpot-House-Drums/Hats/House HiHat 27.wav", 7, "obj-91", "playlist~", "preset_clipstate", 1, "filename", "House HiHat 27.wav", 7, "obj-91", "playlist~", "preset_clipstate", 1, "loop", 0, 8, "obj-91", "playlist~", "preset_clipstate", 1, "selection", -1.0, -1.0, 7, "obj-91", "playlist~", "preset_clipstate", 1, "id", "u010001682", 4, "obj-91", "playlist~", "preset_execute", 5, "obj-85", "number", "int", 16, 5, "obj-84", "number", "int", 11, 5, "obj-83", "number", "int", 2, 5, "obj-113", "flonum", "float", 0.5 ]
						}
, 						{
							"number" : 2,
							"data" : [ 5, "obj-14", "playlist~", "preset_count", 1, 7, "obj-14", "playlist~", "preset_clipstate", 1, "filekind", "audiofile", 7, "obj-14", "playlist~", "preset_clipstate", 1, "absolutepath", "Macintosh HD:/Users/samueltarakajian/cute/sound-studio-samples/drums/ProducerSpot-House-Drums/Claps/House Clap 16.wav", 7, "obj-14", "playlist~", "preset_clipstate", 1, "filename", "House Clap 16.wav", 7, "obj-14", "playlist~", "preset_clipstate", 1, "loop", 0, 8, "obj-14", "playlist~", "preset_clipstate", 1, "selection", -1.0, -1.0, 7, "obj-14", "playlist~", "preset_clipstate", 1, "id", "u564005336", 4, "obj-14", "playlist~", "preset_execute", 5, "obj-44", "number", "int", 8, 5, "obj-47", "number", "int", 5, 5, "obj-49", "number", "int", 1, 5, "obj-75", "playlist~", "preset_count", 1, 7, "obj-75", "playlist~", "preset_clipstate", 1, "filekind", "audiofile", 7, "obj-75", "playlist~", "preset_clipstate", 1, "absolutepath", "/Users/samueltarakajian/cute/sound-studio-samples/drums/ProducerSpot-House-Drums/Kicks/House Kick 41.wav", 7, "obj-75", "playlist~", "preset_clipstate", 1, "filename", "House Kick 41.wav", 7, "obj-75", "playlist~", "preset_clipstate", 1, "loop", 0, 8, "obj-75", "playlist~", "preset_clipstate", 1, "selection", -1.0, -1.0, 7, "obj-75", "playlist~", "preset_clipstate", 1, "id", "u984009869", 4, "obj-75", "playlist~", "preset_execute", 5, "obj-69", "number", "int", 16, 5, "obj-68", "number", "int", 5, 5, "obj-67", "number", "int", 0, 5, "obj-91", "playlist~", "preset_count", 1, 7, "obj-91", "playlist~", "preset_clipstate", 1, "filekind", "audiofile", 7, "obj-91", "playlist~", "preset_clipstate", 1, "absolutepath", "/Users/samueltarakajian/cute/sound-studio-samples/drums/ProducerSpot-House-Drums/Hats/House HiHat 27.wav", 7, "obj-91", "playlist~", "preset_clipstate", 1, "filename", "House HiHat 27.wav", 7, "obj-91", "playlist~", "preset_clipstate", 1, "loop", 0, 8, "obj-91", "playlist~", "preset_clipstate", 1, "selection", -1.0, -1.0, 7, "obj-91", "playlist~", "preset_clipstate", 1, "id", "u010001682", 4, "obj-91", "playlist~", "preset_execute", 5, "obj-85", "number", "int", 16, 5, "obj-84", "number", "int", 11, 5, "obj-83", "number", "int", 2, 5, "obj-113", "flonum", "float", 0.5 ]
						}
, 						{
							"number" : 3,
							"data" : [ 5, "obj-14", "playlist~", "preset_count", 1, 7, "obj-14", "playlist~", "preset_clipstate", 1, "filekind", "audiofile", 7, "obj-14", "playlist~", "preset_clipstate", 1, "absolutepath", "Macintosh HD:/Users/samueltarakajian/cute/sound-studio-samples/drums/ProducerSpot-House-Drums/Claps/House Clap 16.wav", 7, "obj-14", "playlist~", "preset_clipstate", 1, "filename", "House Clap 16.wav", 7, "obj-14", "playlist~", "preset_clipstate", 1, "loop", 0, 8, "obj-14", "playlist~", "preset_clipstate", 1, "selection", -1.0, -1.0, 7, "obj-14", "playlist~", "preset_clipstate", 1, "id", "u564005336", 4, "obj-14", "playlist~", "preset_execute", 5, "obj-44", "number", "int", 4, 5, "obj-47", "number", "int", 5, 5, "obj-49", "number", "int", 1, 5, "obj-75", "playlist~", "preset_count", 1, 7, "obj-75", "playlist~", "preset_clipstate", 1, "filekind", "audiofile", 7, "obj-75", "playlist~", "preset_clipstate", 1, "absolutepath", "/Users/samueltarakajian/cute/sound-studio-samples/drums/ProducerSpot-House-Drums/Kicks/House Kick 41.wav", 7, "obj-75", "playlist~", "preset_clipstate", 1, "filename", "House Kick 41.wav", 7, "obj-75", "playlist~", "preset_clipstate", 1, "loop", 0, 8, "obj-75", "playlist~", "preset_clipstate", 1, "selection", -1.0, -1.0, 7, "obj-75", "playlist~", "preset_clipstate", 1, "id", "u984009869", 4, "obj-75", "playlist~", "preset_execute", 5, "obj-69", "number", "int", 16, 5, "obj-68", "number", "int", 5, 5, "obj-67", "number", "int", 1, 5, "obj-91", "playlist~", "preset_count", 1, 7, "obj-91", "playlist~", "preset_clipstate", 1, "filekind", "audiofile", 7, "obj-91", "playlist~", "preset_clipstate", 1, "absolutepath", "/Users/samueltarakajian/cute/sound-studio-samples/drums/ProducerSpot-House-Drums/Hats/House HiHat 27.wav", 7, "obj-91", "playlist~", "preset_clipstate", 1, "filename", "House HiHat 27.wav", 7, "obj-91", "playlist~", "preset_clipstate", 1, "loop", 0, 8, "obj-91", "playlist~", "preset_clipstate", 1, "selection", -1.0, -1.0, 7, "obj-91", "playlist~", "preset_clipstate", 1, "id", "u010001682", 4, "obj-91", "playlist~", "preset_execute", 5, "obj-85", "number", "int", 16, 5, "obj-84", "number", "int", 6, 5, "obj-83", "number", "int", 2, 5, "obj-113", "flonum", "float", 0.5 ]
						}
 ]
				}

			}
, 			{
				"box" : 				{
					"format" : 6,
					"id" : "obj-113",
					"maxclass" : "flonum",
					"numinlets" : 1,
					"numoutlets" : 2,
					"outlettype" : [ "", "bang" ],
					"parameter_enable" : 1,
					"patching_rect" : [ 57.0, 107.0, 50.0, 22.0 ],
					"saved_attribute_attributes" : 					{
						"valueof" : 						{
							"parameter_invisible" : 1,
							"parameter_longname" : "number[9]",
							"parameter_modmode" : 0,
							"parameter_shortname" : "number[9]",
							"parameter_type" : 3
						}

					}
,
					"varname" : "number[9]"
				}

			}
, 			{
				"box" : 				{
					"id" : "obj-111",
					"maxclass" : "comment",
					"numinlets" : 1,
					"numoutlets" : 0,
					"patching_rect" : [ 941.0, 162.0, 40.0, 20.0 ],
					"text" : "Offset"
				}

			}
, 			{
				"box" : 				{
					"id" : "obj-110",
					"maxclass" : "comment",
					"numinlets" : 1,
					"numoutlets" : 0,
					"patching_rect" : [ 905.0, 136.0, 76.0, 20.0 ],
					"text" : "Onset Count"
				}

			}
, 			{
				"box" : 				{
					"id" : "obj-109",
					"maxclass" : "comment",
					"numinlets" : 1,
					"numoutlets" : 0,
					"patching_rect" : [ 886.0, 108.0, 95.0, 20.0 ],
					"text" : "Measure Length"
				}

			}
, 			{
				"box" : 				{
					"id" : "obj-107",
					"maxclass" : "newobj",
					"numinlets" : 4,
					"numoutlets" : 1,
					"outlettype" : [ "" ],
					"patcher" : 					{
						"fileversion" : 1,
						"appversion" : 						{
							"major" : 8,
							"minor" : 6,
							"revision" : 2,
							"architecture" : "x64",
							"modernui" : 1
						}
,
						"classnamespace" : "box",
						"rect" : [ 34.0, 100.0, 1206.0, 983.0 ],
						"bglocked" : 0,
						"openinpresentation" : 0,
						"default_fontsize" : 12.0,
						"default_fontface" : 0,
						"default_fontname" : "Arial",
						"gridonopen" : 1,
						"gridsize" : [ 15.0, 15.0 ],
						"gridsnaponopen" : 1,
						"objectsnaponopen" : 1,
						"statusbarvisible" : 2,
						"toolbarvisible" : 1,
						"lefttoolbarpinned" : 0,
						"toptoolbarpinned" : 0,
						"righttoolbarpinned" : 0,
						"bottomtoolbarpinned" : 0,
						"toolbars_unpinned_last_save" : 0,
						"tallnewobj" : 0,
						"boxanimatetime" : 200,
						"enablehscroll" : 1,
						"enablevscroll" : 1,
						"devicewidth" : 0.0,
						"description" : "",
						"digest" : "",
						"tags" : "",
						"style" : "",
						"subpatcher_template" : "",
						"assistshowspatchername" : 0,
						"boxes" : [ 							{
								"box" : 								{
									"id" : "obj-81",
									"maxclass" : "newobj",
									"numinlets" : 2,
									"numoutlets" : 1,
									"outlettype" : [ "signal" ],
									"patching_rect" : [ 27.75, 242.0, 36.0, 22.0 ],
									"text" : "%~ 8"
								}

							}
, 							{
								"box" : 								{
									"id" : "obj-82",
									"maxclass" : "newobj",
									"numinlets" : 2,
									"numoutlets" : 1,
									"outlettype" : [ "signal" ],
									"patching_rect" : [ 31.0, 190.0, 29.5, 22.0 ],
									"text" : "+~"
								}

							}
, 							{
								"box" : 								{
									"id" : "obj-86",
									"maxclass" : "newobj",
									"numinlets" : 2,
									"numoutlets" : 1,
									"outlettype" : [ "signal" ],
									"patching_rect" : [ 121.0, 338.0, 29.5, 22.0 ],
									"text" : "/~ 8"
								}

							}
, 							{
								"box" : 								{
									"id" : "obj-87",
									"maxclass" : "newobj",
									"numinlets" : 1,
									"numoutlets" : 1,
									"outlettype" : [ "signal" ],
									"patching_rect" : [ 27.75, 286.0, 42.0, 22.0 ],
									"text" : "trunc~"
								}

							}
, 							{
								"box" : 								{
									"id" : "obj-88",
									"maxclass" : "newobj",
									"numinlets" : 2,
									"numoutlets" : 1,
									"outlettype" : [ "signal" ],
									"patching_rect" : [ 121.0, 389.0, 30.0, 22.0 ],
									"text" : "*~ 5"
								}

							}
, 							{
								"box" : 								{
									"id" : "obj-90",
									"maxclass" : "message",
									"numinlets" : 2,
									"numoutlets" : 1,
									"outlettype" : [ "" ],
									"patching_rect" : [ 121.0, 612.0, 29.5, 22.0 ],
									"text" : "1"
								}

							}
, 							{
								"box" : 								{
									"id" : "obj-92",
									"maxclass" : "newobj",
									"numinlets" : 1,
									"numoutlets" : 2,
									"outlettype" : [ "bang", "bang" ],
									"patching_rect" : [ 121.0, 581.0, 42.0, 22.0 ],
									"text" : "edge~"
								}

							}
, 							{
								"box" : 								{
									"id" : "obj-93",
									"maxclass" : "newobj",
									"numinlets" : 2,
									"numoutlets" : 1,
									"outlettype" : [ "signal" ],
									"patching_rect" : [ 121.0, 536.0, 36.0, 22.0 ],
									"text" : "!=~ 0"
								}

							}
, 							{
								"box" : 								{
									"id" : "obj-94",
									"maxclass" : "newobj",
									"numinlets" : 1,
									"numoutlets" : 1,
									"outlettype" : [ "signal" ],
									"patching_rect" : [ 121.0, 499.0, 42.0, 22.0 ],
									"text" : "delta~"
								}

							}
, 							{
								"box" : 								{
									"id" : "obj-95",
									"maxclass" : "newobj",
									"numinlets" : 1,
									"numoutlets" : 1,
									"outlettype" : [ "signal" ],
									"patching_rect" : [ 121.0, 451.0, 42.0, 22.0 ],
									"text" : "trunc~"
								}

							}
, 							{
								"box" : 								{
									"id" : "obj-96",
									"maxclass" : "newobj",
									"numinlets" : 2,
									"numoutlets" : 1,
									"outlettype" : [ "signal" ],
									"patching_rect" : [ 31.0, 135.0, 30.0, 22.0 ],
									"text" : "*~ 8"
								}

							}
, 							{
								"box" : 								{
									"comment" : "Phasor",
									"id" : "obj-102",
									"index" : 1,
									"maxclass" : "inlet",
									"numinlets" : 0,
									"numoutlets" : 1,
									"outlettype" : [ "signal" ],
									"patching_rect" : [ 31.0, 32.0, 30.0, 30.0 ]
								}

							}
, 							{
								"box" : 								{
									"comment" : "Offset",
									"id" : "obj-103",
									"index" : 4,
									"maxclass" : "inlet",
									"numinlets" : 0,
									"numoutlets" : 1,
									"outlettype" : [ "" ],
									"patching_rect" : [ 335.0, 32.0, 30.0, 30.0 ]
								}

							}
, 							{
								"box" : 								{
									"comment" : "Measure Length",
									"id" : "obj-104",
									"index" : 2,
									"maxclass" : "inlet",
									"numinlets" : 0,
									"numoutlets" : 1,
									"outlettype" : [ "" ],
									"patching_rect" : [ 173.0, 32.0, 30.0, 30.0 ]
								}

							}
, 							{
								"box" : 								{
									"comment" : "Onset Count",
									"id" : "obj-105",
									"index" : 3,
									"maxclass" : "inlet",
									"numinlets" : 0,
									"numoutlets" : 1,
									"outlettype" : [ "" ],
									"patching_rect" : [ 249.0, 32.0, 30.0, 30.0 ]
								}

							}
, 							{
								"box" : 								{
									"comment" : "",
									"id" : "obj-106",
									"index" : 1,
									"maxclass" : "outlet",
									"numinlets" : 1,
									"numoutlets" : 0,
									"patching_rect" : [ 121.0, 694.0, 30.0, 30.0 ]
								}

							}
 ],
						"lines" : [ 							{
								"patchline" : 								{
									"destination" : [ "obj-96", 0 ],
									"source" : [ "obj-102", 0 ]
								}

							}
, 							{
								"patchline" : 								{
									"destination" : [ "obj-82", 1 ],
									"source" : [ "obj-103", 0 ]
								}

							}
, 							{
								"patchline" : 								{
									"destination" : [ "obj-81", 1 ],
									"order" : 1,
									"source" : [ "obj-104", 0 ]
								}

							}
, 							{
								"patchline" : 								{
									"destination" : [ "obj-86", 1 ],
									"order" : 0,
									"source" : [ "obj-104", 0 ]
								}

							}
, 							{
								"patchline" : 								{
									"destination" : [ "obj-96", 1 ],
									"order" : 2,
									"source" : [ "obj-104", 0 ]
								}

							}
, 							{
								"patchline" : 								{
									"destination" : [ "obj-88", 1 ],
									"source" : [ "obj-105", 0 ]
								}

							}
, 							{
								"patchline" : 								{
									"destination" : [ "obj-87", 0 ],
									"source" : [ "obj-81", 0 ]
								}

							}
, 							{
								"patchline" : 								{
									"destination" : [ "obj-81", 0 ],
									"source" : [ "obj-82", 0 ]
								}

							}
, 							{
								"patchline" : 								{
									"destination" : [ "obj-88", 0 ],
									"source" : [ "obj-86", 0 ]
								}

							}
, 							{
								"patchline" : 								{
									"destination" : [ "obj-86", 0 ],
									"source" : [ "obj-87", 0 ]
								}

							}
, 							{
								"patchline" : 								{
									"destination" : [ "obj-95", 0 ],
									"source" : [ "obj-88", 0 ]
								}

							}
, 							{
								"patchline" : 								{
									"destination" : [ "obj-106", 0 ],
									"source" : [ "obj-90", 0 ]
								}

							}
, 							{
								"patchline" : 								{
									"destination" : [ "obj-90", 0 ],
									"source" : [ "obj-92", 0 ]
								}

							}
, 							{
								"patchline" : 								{
									"destination" : [ "obj-92", 0 ],
									"source" : [ "obj-93", 0 ]
								}

							}
, 							{
								"patchline" : 								{
									"destination" : [ "obj-93", 0 ],
									"source" : [ "obj-94", 0 ]
								}

							}
, 							{
								"patchline" : 								{
									"destination" : [ "obj-94", 0 ],
									"source" : [ "obj-95", 0 ]
								}

							}
, 							{
								"patchline" : 								{
									"destination" : [ "obj-82", 0 ],
									"source" : [ "obj-96", 0 ]
								}

							}
 ]
					}
,
					"patching_rect" : [ 892.0, 320.0, 70.0, 22.0 ],
					"saved_object_attributes" : 					{
						"description" : "",
						"digest" : "",
						"globalpatchername" : "",
						"tags" : ""
					}
,
					"text" : "p euclidean"
				}

			}
, 			{
				"box" : 				{
					"id" : "obj-83",
					"maxclass" : "number",
					"numinlets" : 1,
					"numoutlets" : 2,
					"outlettype" : [ "", "bang" ],
					"parameter_enable" : 1,
					"patching_rect" : [ 986.0, 161.0, 50.0, 22.0 ],
					"saved_attribute_attributes" : 					{
						"valueof" : 						{
							"parameter_invisible" : 1,
							"parameter_longname" : "number[2]",
							"parameter_modmode" : 0,
							"parameter_shortname" : "number[2]",
							"parameter_type" : 3
						}

					}
,
					"varname" : "number[2]"
				}

			}
, 			{
				"box" : 				{
					"id" : "obj-84",
					"maxclass" : "number",
					"numinlets" : 1,
					"numoutlets" : 2,
					"outlettype" : [ "", "bang" ],
					"parameter_enable" : 1,
					"patching_rect" : [ 986.0, 135.0, 50.0, 22.0 ],
					"saved_attribute_attributes" : 					{
						"valueof" : 						{
							"parameter_invisible" : 1,
							"parameter_longname" : "number[1]",
							"parameter_modmode" : 0,
							"parameter_shortname" : "number[1]",
							"parameter_type" : 3
						}

					}
,
					"varname" : "number[1]"
				}

			}
, 			{
				"box" : 				{
					"id" : "obj-85",
					"maxclass" : "number",
					"numinlets" : 1,
					"numoutlets" : 2,
					"outlettype" : [ "", "bang" ],
					"parameter_enable" : 1,
					"patching_rect" : [ 986.0, 107.0, 50.0, 22.0 ],
					"saved_attribute_attributes" : 					{
						"valueof" : 						{
							"parameter_invisible" : 1,
							"parameter_longname" : "number",
							"parameter_modmode" : 0,
							"parameter_shortname" : "number",
							"parameter_type" : 3
						}

					}
,
					"varname" : "number"
				}

			}
, 			{
				"box" : 				{
					"id" : "obj-89",
					"maxclass" : "ezdac~",
					"numinlets" : 2,
					"numoutlets" : 0,
					"patching_rect" : [ 892.0, 822.0, 45.0, 45.0 ]
				}

			}
, 			{
				"box" : 				{
					"basictuning" : 440,
					"data" : 					{
						"clips" : [ 							{
								"absolutepath" : "/Users/samueltarakajian/cute/sound-studio-samples/drums/ProducerSpot-House-Drums/Hats/House HiHat 27.wav",
								"filename" : "House HiHat 27.wav",
								"filekind" : "audiofile",
								"id" : "u010001682",
								"loop" : 0,
								"content_state" : 								{

								}

							}
 ]
					}
,
					"followglobaltempo" : 0,
					"formantcorrection" : 0,
					"id" : "obj-91",
					"maxclass" : "playlist~",
					"mode" : "basic",
					"numinlets" : 1,
					"numoutlets" : 5,
					"originallength" : [ 0.0, "ticks" ],
					"originaltempo" : 120.0,
					"outlettype" : [ "signal", "signal", "signal", "", "dictionary" ],
					"parameter_enable" : 0,
					"patching_rect" : [ 892.0, 737.0, 150.0, 30.0 ],
					"pitchcorrection" : 0,
					"quality" : "basic",
					"timestretch" : [ 0 ]
				}

			}
, 			{
				"box" : 				{
					"id" : "obj-65",
					"maxclass" : "newobj",
					"numinlets" : 2,
					"numoutlets" : 1,
					"outlettype" : [ "signal" ],
					"patching_rect" : [ 450.0, 338.0, 36.0, 22.0 ],
					"text" : "%~ 8"
				}

			}
, 			{
				"box" : 				{
					"id" : "obj-66",
					"maxclass" : "newobj",
					"numinlets" : 2,
					"numoutlets" : 1,
					"outlettype" : [ "signal" ],
					"patching_rect" : [ 450.0, 298.0, 29.5, 22.0 ],
					"text" : "+~"
				}

			}
, 			{
				"box" : 				{
					"id" : "obj-67",
					"maxclass" : "number",
					"numinlets" : 1,
					"numoutlets" : 2,
					"outlettype" : [ "", "bang" ],
					"parameter_enable" : 1,
					"patching_rect" : [ 730.0, 168.0, 50.0, 22.0 ],
					"saved_attribute_attributes" : 					{
						"valueof" : 						{
							"parameter_invisible" : 1,
							"parameter_longname" : "number[3]",
							"parameter_modmode" : 0,
							"parameter_shortname" : "number[3]",
							"parameter_type" : 3
						}

					}
,
					"varname" : "number[3]"
				}

			}
, 			{
				"box" : 				{
					"id" : "obj-68",
					"maxclass" : "number",
					"numinlets" : 1,
					"numoutlets" : 2,
					"outlettype" : [ "", "bang" ],
					"parameter_enable" : 1,
					"patching_rect" : [ 660.0, 168.0, 50.0, 22.0 ],
					"saved_attribute_attributes" : 					{
						"valueof" : 						{
							"parameter_invisible" : 1,
							"parameter_longname" : "number[4]",
							"parameter_modmode" : 0,
							"parameter_shortname" : "number[4]",
							"parameter_type" : 3
						}

					}
,
					"varname" : "number[4]"
				}

			}
, 			{
				"box" : 				{
					"id" : "obj-69",
					"maxclass" : "number",
					"numinlets" : 1,
					"numoutlets" : 2,
					"outlettype" : [ "", "bang" ],
					"parameter_enable" : 1,
					"patching_rect" : [ 591.0, 168.0, 50.0, 22.0 ],
					"saved_attribute_attributes" : 					{
						"valueof" : 						{
							"parameter_invisible" : 1,
							"parameter_longname" : "number[5]",
							"parameter_modmode" : 0,
							"parameter_shortname" : "number[5]",
							"parameter_type" : 3
						}

					}
,
					"varname" : "number[5]"
				}

			}
, 			{
				"box" : 				{
					"id" : "obj-70",
					"maxclass" : "newobj",
					"numinlets" : 2,
					"numoutlets" : 1,
					"outlettype" : [ "signal" ],
					"patching_rect" : [ 450.0, 433.0, 29.5, 22.0 ],
					"text" : "/~ 8"
				}

			}
, 			{
				"box" : 				{
					"id" : "obj-71",
					"maxclass" : "newobj",
					"numinlets" : 1,
					"numoutlets" : 1,
					"outlettype" : [ "signal" ],
					"patching_rect" : [ 450.0, 401.0, 42.0, 22.0 ],
					"text" : "trunc~"
				}

			}
, 			{
				"box" : 				{
					"id" : "obj-72",
					"maxclass" : "newobj",
					"numinlets" : 2,
					"numoutlets" : 1,
					"outlettype" : [ "signal" ],
					"patching_rect" : [ 450.0, 484.0, 30.0, 22.0 ],
					"text" : "*~ 5"
				}

			}
, 			{
				"box" : 				{
					"id" : "obj-73",
					"maxclass" : "ezdac~",
					"numinlets" : 2,
					"numoutlets" : 0,
					"patching_rect" : [ 450.0, 828.0, 45.0, 45.0 ]
				}

			}
, 			{
				"box" : 				{
					"id" : "obj-74",
					"maxclass" : "message",
					"numinlets" : 2,
					"numoutlets" : 1,
					"outlettype" : [ "" ],
					"patching_rect" : [ 450.0, 707.0, 29.5, 22.0 ],
					"text" : "1"
				}

			}
, 			{
				"box" : 				{
					"basictuning" : 440,
					"data" : 					{
						"clips" : [ 							{
								"absolutepath" : "/Users/samueltarakajian/cute/sound-studio-samples/drums/ProducerSpot-House-Drums/Kicks/House Kick 41.wav",
								"filename" : "House Kick 41.wav",
								"filekind" : "audiofile",
								"id" : "u984009869",
								"loop" : 0,
								"content_state" : 								{

								}

							}
 ]
					}
,
					"followglobaltempo" : 0,
					"formantcorrection" : 0,
					"id" : "obj-75",
					"maxclass" : "playlist~",
					"mode" : "basic",
					"numinlets" : 1,
					"numoutlets" : 5,
					"originallength" : [ 0.0, "ticks" ],
					"originaltempo" : 120.0,
					"outlettype" : [ "signal", "signal", "signal", "", "dictionary" ],
					"parameter_enable" : 0,
					"patching_rect" : [ 450.0, 743.0, 150.0, 30.0 ],
					"pitchcorrection" : 0,
					"quality" : "basic",
					"timestretch" : [ 0 ]
				}

			}
, 			{
				"box" : 				{
					"id" : "obj-76",
					"maxclass" : "newobj",
					"numinlets" : 1,
					"numoutlets" : 2,
					"outlettype" : [ "bang", "bang" ],
					"patching_rect" : [ 450.0, 676.0, 42.0, 22.0 ],
					"text" : "edge~"
				}

			}
, 			{
				"box" : 				{
					"id" : "obj-77",
					"maxclass" : "newobj",
					"numinlets" : 2,
					"numoutlets" : 1,
					"outlettype" : [ "signal" ],
					"patching_rect" : [ 450.0, 631.0, 36.0, 22.0 ],
					"text" : "!=~ 0"
				}

			}
, 			{
				"box" : 				{
					"id" : "obj-78",
					"maxclass" : "newobj",
					"numinlets" : 1,
					"numoutlets" : 1,
					"outlettype" : [ "signal" ],
					"patching_rect" : [ 450.0, 594.0, 42.0, 22.0 ],
					"text" : "delta~"
				}

			}
, 			{
				"box" : 				{
					"id" : "obj-79",
					"maxclass" : "newobj",
					"numinlets" : 1,
					"numoutlets" : 1,
					"outlettype" : [ "signal" ],
					"patching_rect" : [ 450.0, 546.0, 42.0, 22.0 ],
					"text" : "trunc~"
				}

			}
, 			{
				"box" : 				{
					"id" : "obj-80",
					"maxclass" : "newobj",
					"numinlets" : 2,
					"numoutlets" : 1,
					"outlettype" : [ "signal" ],
					"patching_rect" : [ 450.0, 254.0, 30.0, 22.0 ],
					"text" : "*~ 8"
				}

			}
, 			{
				"box" : 				{
					"id" : "obj-51",
					"maxclass" : "newobj",
					"numinlets" : 2,
					"numoutlets" : 1,
					"outlettype" : [ "signal" ],
					"patching_rect" : [ 57.0, 338.0, 36.0, 22.0 ],
					"text" : "%~ 8"
				}

			}
, 			{
				"box" : 				{
					"id" : "obj-50",
					"maxclass" : "newobj",
					"numinlets" : 2,
					"numoutlets" : 1,
					"outlettype" : [ "signal" ],
					"patching_rect" : [ 57.0, 298.0, 29.5, 22.0 ],
					"text" : "+~"
				}

			}
, 			{
				"box" : 				{
					"id" : "obj-49",
					"maxclass" : "number",
					"numinlets" : 1,
					"numoutlets" : 2,
					"outlettype" : [ "", "bang" ],
					"parameter_enable" : 1,
					"patching_rect" : [ 337.0, 168.0, 50.0, 22.0 ],
					"saved_attribute_attributes" : 					{
						"valueof" : 						{
							"parameter_invisible" : 1,
							"parameter_longname" : "number[8]",
							"parameter_modmode" : 0,
							"parameter_shortname" : "number[8]",
							"parameter_type" : 3
						}

					}
,
					"varname" : "number[8]"
				}

			}
, 			{
				"box" : 				{
					"id" : "obj-47",
					"maxclass" : "number",
					"numinlets" : 1,
					"numoutlets" : 2,
					"outlettype" : [ "", "bang" ],
					"parameter_enable" : 1,
					"patching_rect" : [ 267.0, 168.0, 50.0, 22.0 ],
					"saved_attribute_attributes" : 					{
						"valueof" : 						{
							"parameter_invisible" : 1,
							"parameter_longname" : "number[7]",
							"parameter_modmode" : 0,
							"parameter_shortname" : "number[7]",
							"parameter_type" : 3
						}

					}
,
					"varname" : "number[7]"
				}

			}
, 			{
				"box" : 				{
					"id" : "obj-44",
					"maxclass" : "number",
					"numinlets" : 1,
					"numoutlets" : 2,
					"outlettype" : [ "", "bang" ],
					"parameter_enable" : 1,
					"patching_rect" : [ 198.0, 168.0, 50.0, 22.0 ],
					"saved_attribute_attributes" : 					{
						"valueof" : 						{
							"parameter_invisible" : 1,
							"parameter_longname" : "number[6]",
							"parameter_modmode" : 0,
							"parameter_shortname" : "number[6]",
							"parameter_type" : 3
						}

					}
,
					"varname" : "number[6]"
				}

			}
, 			{
				"box" : 				{
					"id" : "obj-40",
					"maxclass" : "newobj",
					"numinlets" : 2,
					"numoutlets" : 1,
					"outlettype" : [ "signal" ],
					"patching_rect" : [ 57.0, 433.0, 29.5, 22.0 ],
					"text" : "/~ 8"
				}

			}
, 			{
				"box" : 				{
					"id" : "obj-39",
					"maxclass" : "newobj",
					"numinlets" : 1,
					"numoutlets" : 1,
					"outlettype" : [ "signal" ],
					"patching_rect" : [ 57.232703447341919, 385.534584760665894, 42.0, 22.0 ],
					"text" : "trunc~"
				}

			}
, 			{
				"box" : 				{
					"id" : "obj-37",
					"maxclass" : "newobj",
					"numinlets" : 2,
					"numoutlets" : 1,
					"outlettype" : [ "signal" ],
					"patching_rect" : [ 57.0, 484.0, 30.0, 22.0 ],
					"text" : "*~ 5"
				}

			}
, 			{
				"box" : 				{
					"id" : "obj-17",
					"maxclass" : "ezdac~",
					"numinlets" : 2,
					"numoutlets" : 0,
					"patching_rect" : [ 57.0, 828.0, 45.0, 45.0 ]
				}

			}
, 			{
				"box" : 				{
					"id" : "obj-16",
					"maxclass" : "message",
					"numinlets" : 2,
					"numoutlets" : 1,
					"outlettype" : [ "" ],
					"patching_rect" : [ 57.0, 707.0, 29.5, 22.0 ],
					"text" : "1"
				}

			}
, 			{
				"box" : 				{
					"basictuning" : 440,
					"data" : 					{
						"clips" : [ 							{
								"absolutepath" : "Macintosh HD:/Users/samueltarakajian/cute/sound-studio-samples/drums/ProducerSpot-House-Drums/Claps/House Clap 16.wav",
								"filename" : "House Clap 16.wav",
								"filekind" : "audiofile",
								"id" : "u564005336",
								"loop" : 0,
								"content_state" : 								{

								}

							}
 ]
					}
,
					"followglobaltempo" : 0,
					"formantcorrection" : 0,
					"id" : "obj-14",
					"maxclass" : "playlist~",
					"mode" : "basic",
					"numinlets" : 1,
					"numoutlets" : 5,
					"originallength" : [ 0.0, "ticks" ],
					"originaltempo" : 120.0,
					"outlettype" : [ "signal", "signal", "signal", "", "dictionary" ],
					"parameter_enable" : 0,
					"patching_rect" : [ 57.0, 743.0, 150.0, 30.0 ],
					"pitchcorrection" : 0,
					"quality" : "basic",
					"timestretch" : [ 0 ]
				}

			}
, 			{
				"box" : 				{
					"id" : "obj-12",
					"maxclass" : "newobj",
					"numinlets" : 1,
					"numoutlets" : 2,
					"outlettype" : [ "bang", "bang" ],
					"patching_rect" : [ 57.0, 676.0, 42.0, 22.0 ],
					"text" : "edge~"
				}

			}
, 			{
				"box" : 				{
					"id" : "obj-11",
					"maxclass" : "newobj",
					"numinlets" : 2,
					"numoutlets" : 1,
					"outlettype" : [ "signal" ],
					"patching_rect" : [ 57.0, 631.0, 36.0, 22.0 ],
					"text" : "!=~ 0"
				}

			}
, 			{
				"box" : 				{
					"id" : "obj-9",
					"maxclass" : "newobj",
					"numinlets" : 1,
					"numoutlets" : 1,
					"outlettype" : [ "signal" ],
					"patching_rect" : [ 57.0, 594.0, 42.0, 22.0 ],
					"text" : "delta~"
				}

			}
, 			{
				"box" : 				{
					"id" : "obj-7",
					"maxclass" : "newobj",
					"numinlets" : 1,
					"numoutlets" : 1,
					"outlettype" : [ "signal" ],
					"patching_rect" : [ 57.232703447341919, 528.930808782577515, 42.0, 22.0 ],
					"text" : "trunc~"
				}

			}
, 			{
				"box" : 				{
					"id" : "obj-5",
					"maxclass" : "newobj",
					"numinlets" : 2,
					"numoutlets" : 1,
					"outlettype" : [ "signal" ],
					"patching_rect" : [ 57.0, 254.0, 30.0, 22.0 ],
					"text" : "*~ 8"
				}

			}
, 			{
				"box" : 				{
					"id" : "obj-4",
					"maxclass" : "newobj",
					"numinlets" : 2,
					"numoutlets" : 1,
					"outlettype" : [ "signal" ],
					"patching_rect" : [ 57.0, 161.0, 62.0, 22.0 ],
					"text" : "phasor~ 1"
				}

			}
, 			{
				"box" : 				{
					"fontsize" : 18.0,
					"id" : "obj-2",
					"maxclass" : "comment",
					"numinlets" : 1,
					"numoutlets" : 0,
					"patching_rect" : [ 46.0, 36.0, 222.0, 27.0 ],
					"text" : "Euclidean (Even) Rhythms"
				}

			}
 ],
		"lines" : [ 			{
				"patchline" : 				{
					"destination" : [ "obj-91", 0 ],
					"source" : [ "obj-107", 0 ]
				}

			}
, 			{
				"patchline" : 				{
					"destination" : [ "obj-12", 0 ],
					"source" : [ "obj-11", 0 ]
				}

			}
, 			{
				"patchline" : 				{
					"destination" : [ "obj-4", 0 ],
					"source" : [ "obj-113", 0 ]
				}

			}
, 			{
				"patchline" : 				{
					"destination" : [ "obj-16", 0 ],
					"source" : [ "obj-12", 0 ]
				}

			}
, 			{
				"patchline" : 				{
					"destination" : [ "obj-14", 0 ],
					"source" : [ "obj-16", 0 ]
				}

			}
, 			{
				"patchline" : 				{
					"destination" : [ "obj-7", 0 ],
					"source" : [ "obj-37", 0 ]
				}

			}
, 			{
				"patchline" : 				{
					"destination" : [ "obj-40", 0 ],
					"source" : [ "obj-39", 0 ]
				}

			}
, 			{
				"patchline" : 				{
					"destination" : [ "obj-107", 0 ],
					"order" : 0,
					"source" : [ "obj-4", 0 ]
				}

			}
, 			{
				"patchline" : 				{
					"destination" : [ "obj-5", 0 ],
					"order" : 2,
					"source" : [ "obj-4", 0 ]
				}

			}
, 			{
				"patchline" : 				{
					"destination" : [ "obj-80", 0 ],
					"order" : 1,
					"source" : [ "obj-4", 0 ]
				}

			}
, 			{
				"patchline" : 				{
					"destination" : [ "obj-37", 0 ],
					"source" : [ "obj-40", 0 ]
				}

			}
, 			{
				"patchline" : 				{
					"destination" : [ "obj-40", 1 ],
					"order" : 2,
					"source" : [ "obj-44", 0 ]
				}

			}
, 			{
				"patchline" : 				{
					"destination" : [ "obj-5", 1 ],
					"order" : 1,
					"source" : [ "obj-44", 0 ]
				}

			}
, 			{
				"patchline" : 				{
					"destination" : [ "obj-51", 1 ],
					"order" : 0,
					"source" : [ "obj-44", 0 ]
				}

			}
, 			{
				"patchline" : 				{
					"destination" : [ "obj-37", 1 ],
					"source" : [ "obj-47", 0 ]
				}

			}
, 			{
				"patchline" : 				{
					"destination" : [ "obj-50", 1 ],
					"source" : [ "obj-49", 0 ]
				}

			}
, 			{
				"patchline" : 				{
					"destination" : [ "obj-50", 0 ],
					"source" : [ "obj-5", 0 ]
				}

			}
, 			{
				"patchline" : 				{
					"destination" : [ "obj-51", 0 ],
					"source" : [ "obj-50", 0 ]
				}

			}
, 			{
				"patchline" : 				{
					"destination" : [ "obj-39", 0 ],
					"source" : [ "obj-51", 0 ]
				}

			}
, 			{
				"patchline" : 				{
					"destination" : [ "obj-71", 0 ],
					"source" : [ "obj-65", 0 ]
				}

			}
, 			{
				"patchline" : 				{
					"destination" : [ "obj-65", 0 ],
					"source" : [ "obj-66", 0 ]
				}

			}
, 			{
				"patchline" : 				{
					"destination" : [ "obj-66", 1 ],
					"source" : [ "obj-67", 0 ]
				}

			}
, 			{
				"patchline" : 				{
					"destination" : [ "obj-72", 1 ],
					"source" : [ "obj-68", 0 ]
				}

			}
, 			{
				"patchline" : 				{
					"destination" : [ "obj-65", 1 ],
					"order" : 0,
					"source" : [ "obj-69", 0 ]
				}

			}
, 			{
				"patchline" : 				{
					"destination" : [ "obj-70", 1 ],
					"order" : 2,
					"source" : [ "obj-69", 0 ]
				}

			}
, 			{
				"patchline" : 				{
					"destination" : [ "obj-80", 1 ],
					"order" : 1,
					"source" : [ "obj-69", 0 ]
				}

			}
, 			{
				"patchline" : 				{
					"destination" : [ "obj-9", 0 ],
					"source" : [ "obj-7", 0 ]
				}

			}
, 			{
				"patchline" : 				{
					"destination" : [ "obj-72", 0 ],
					"source" : [ "obj-70", 0 ]
				}

			}
, 			{
				"patchline" : 				{
					"destination" : [ "obj-70", 0 ],
					"source" : [ "obj-71", 0 ]
				}

			}
, 			{
				"patchline" : 				{
					"destination" : [ "obj-79", 0 ],
					"source" : [ "obj-72", 0 ]
				}

			}
, 			{
				"patchline" : 				{
					"destination" : [ "obj-75", 0 ],
					"source" : [ "obj-74", 0 ]
				}

			}
, 			{
				"patchline" : 				{
					"destination" : [ "obj-74", 0 ],
					"source" : [ "obj-76", 0 ]
				}

			}
, 			{
				"patchline" : 				{
					"destination" : [ "obj-76", 0 ],
					"source" : [ "obj-77", 0 ]
				}

			}
, 			{
				"patchline" : 				{
					"destination" : [ "obj-77", 0 ],
					"source" : [ "obj-78", 0 ]
				}

			}
, 			{
				"patchline" : 				{
					"destination" : [ "obj-78", 0 ],
					"source" : [ "obj-79", 0 ]
				}

			}
, 			{
				"patchline" : 				{
					"destination" : [ "obj-66", 0 ],
					"source" : [ "obj-80", 0 ]
				}

			}
, 			{
				"patchline" : 				{
					"destination" : [ "obj-107", 3 ],
					"source" : [ "obj-83", 0 ]
				}

			}
, 			{
				"patchline" : 				{
					"destination" : [ "obj-107", 2 ],
					"source" : [ "obj-84", 0 ]
				}

			}
, 			{
				"patchline" : 				{
					"destination" : [ "obj-107", 1 ],
					"source" : [ "obj-85", 0 ]
				}

			}
, 			{
				"patchline" : 				{
					"destination" : [ "obj-11", 0 ],
					"source" : [ "obj-9", 0 ]
				}

			}
 ],
		"parameters" : 		{
			"obj-113" : [ "number[9]", "number[9]", 0 ],
			"obj-44" : [ "number[6]", "number[6]", 0 ],
			"obj-47" : [ "number[7]", "number[7]", 0 ],
			"obj-49" : [ "number[8]", "number[8]", 0 ],
			"obj-67" : [ "number[3]", "number[3]", 0 ],
			"obj-68" : [ "number[4]", "number[4]", 0 ],
			"obj-69" : [ "number[5]", "number[5]", 0 ],
			"obj-83" : [ "number[2]", "number[2]", 0 ],
			"obj-84" : [ "number[1]", "number[1]", 0 ],
			"obj-85" : [ "number", "number", 0 ],
			"parameterbanks" : 			{
				"0" : 				{
					"index" : 0,
					"name" : "",
					"parameters" : [ "-", "-", "-", "-", "-", "-", "-", "-" ]
				}

			}
,
			"inherited_shortname" : 1
		}
,
		"dependency_cache" : [ 			{
				"name" : "House Clap 16.wav",
				"bootpath" : "~/cute/sound-studio-samples/drums/ProducerSpot-House-Drums/Claps",
				"patcherrelativepath" : "../../../sound-studio-samples/drums/ProducerSpot-House-Drums/Claps",
				"type" : "WAVE",
				"implicit" : 1
			}
, 			{
				"name" : "House HiHat 27.wav",
				"bootpath" : "~/cute/sound-studio-samples/drums/ProducerSpot-House-Drums/Hats",
				"patcherrelativepath" : "../../../sound-studio-samples/drums/ProducerSpot-House-Drums/Hats",
				"type" : "WAVE",
				"implicit" : 1
			}
, 			{
				"name" : "House Kick 41.wav",
				"bootpath" : "~/cute/sound-studio-samples/drums/ProducerSpot-House-Drums/Kicks",
				"patcherrelativepath" : "../../../sound-studio-samples/drums/ProducerSpot-House-Drums/Kicks",
				"type" : "WAVE",
				"implicit" : 1
			}
 ],
		"autosave" : 0
	}

}
